<svg width="77" height="42" viewBox="0 0 77 42" fill="none" xmlns="http://www.w3.org/2000/svg">
<path d="M29.592 11H28.488L28.2 7.268C28.08 5.804 28.012 4.68 27.996 3.896L26.208 10.064H25.14L23.256 3.884C23.256 4.884 23.204 6.04 23.1 7.352L22.824 11H21.744L22.428 2.732H23.964L25.704 8.744L27.36 2.732H28.908L29.592 11ZM36.0158 2.732L35.8838 3.644H32.6798V6.344H35.4638V7.256H32.6798V10.088H36.1118V11H31.5398V2.732H36.0158ZM39.1017 2.732V11H37.9617V2.732H39.1017ZM43.6017 2.732L40.4697 6.512L43.8297 11H42.4257L39.1617 6.584L42.3057 2.732H43.6017ZM49.4321 11L48.8081 8.924H45.6761L45.0521 11H43.9001L46.5521 2.732H47.9921L50.6321 11H49.4321ZM45.9521 8H48.5321L47.2481 3.68L45.9521 8ZM57.703 11H56.179L52.819 3.98C52.867 4.532 52.903 5.044 52.927 5.516C52.959 5.98 52.975 6.544 52.975 7.208V11H51.907V2.732H53.395L56.791 9.764C56.767 9.556 56.735 9.192 56.695 8.672C56.655 8.152 56.635 7.676 56.635 7.244V2.732H57.703V11ZM61.2384 2.732V11H60.0984V2.732H61.2384ZM64.7775 2.732V11H63.6375V2.732H64.7775ZM69.2775 2.732L66.1455 6.512L69.5055 11H68.1015L64.8375 6.584L67.9815 2.732H69.2775ZM75.1079 11L74.4839 8.924H71.3519L70.7279 11H69.5759L72.2279 2.732H73.6679L76.3079 11H75.1079ZM71.6279 8H74.2079L72.9239 3.68L71.6279 8ZM23.928 16.732C25.176 16.732 26.176 17.024 26.928 17.608C27.688 18.184 28.068 19.256 28.068 20.824C28.068 22.352 27.688 23.432 26.928 24.064C26.176 24.688 25.26 25 24.18 25H22.2V16.732H23.928ZM23.34 17.644V24.1H24.264C25.032 24.1 25.656 23.864 26.136 23.392C26.616 22.92 26.856 22.064 26.856 20.824C26.856 19.952 26.732 19.284 26.484 18.82C26.236 18.348 25.92 18.036 25.536 17.884C25.152 17.724 24.7 17.644 24.18 17.644H23.34ZM33.4627 16.732V25H32.3227V16.732H33.4627ZM41.3097 16.588C41.8297 16.588 42.2777 16.664 42.6537 16.816C43.0377 16.96 43.4177 17.188 43.7937 17.5L43.1217 18.196C42.8257 17.956 42.5417 17.784 42.2697 17.68C41.9977 17.576 41.6777 17.524 41.3097 17.524C40.8857 17.524 40.4937 17.64 40.1337 17.872C39.7817 18.096 39.4937 18.46 39.2697 18.964C39.0457 19.46 38.9337 20.092 38.9337 20.86C38.9337 22.02 39.1217 22.868 39.4977 23.404C39.8817 23.94 40.4457 24.208 41.1897 24.208C41.7977 24.208 42.3217 24.084 42.7617 23.836V21.34H41.2977L41.1657 20.416H43.8897V24.412C43.0337 24.9 42.1337 25.144 41.1897 25.144C40.1017 25.144 39.2497 24.78 38.6337 24.052C38.0257 23.324 37.7217 22.26 37.7217 20.86C37.7217 19.964 37.8817 19.196 38.2017 18.556C38.5297 17.908 38.9657 17.42 39.5097 17.092C40.0617 16.756 40.6617 16.588 41.3097 16.588ZM49.372 16.732V25H48.232V16.732H49.372ZM59.0551 16.732L58.9351 17.704H56.6431V25H55.5031V17.704H53.1511V16.732H59.0551ZM66.5767 25L65.9527 22.924H62.8207L62.1967 25H61.0447L63.6967 16.732H65.1367L67.7767 25H66.5767ZM63.0967 22H65.6767L64.3927 17.68L63.0967 22ZM72.5916 16.732V24.004H75.9876L75.8556 25H71.4516V16.732H72.5916ZM24.372 30.732C25.396 30.732 26.188 30.948 26.748 31.38C27.308 31.804 27.588 32.44 27.588 33.288C27.588 34.192 27.296 34.864 26.712 35.304C26.128 35.744 25.352 35.964 24.384 35.964H23.34V39H22.2V30.732H24.372ZM24.336 35.064C25 35.064 25.504 34.936 25.848 34.68C26.2 34.424 26.376 33.964 26.376 33.3C26.376 32.708 26.2 32.28 25.848 32.016C25.504 31.752 25.008 31.62 24.36 31.62H23.34V35.064H24.336ZM32.6767 35.496H31.3927V39H30.2527V30.732H32.4247C33.4567 30.732 34.2367 30.928 34.7647 31.32C35.3007 31.712 35.5687 32.296 35.5687 33.072C35.5687 33.648 35.4207 34.116 35.1247 34.476C34.8287 34.836 34.3807 35.108 33.7807 35.292L36.0127 39H34.6567L32.6767 35.496ZM32.5447 34.62C33.1447 34.62 33.5967 34.5 33.9007 34.26C34.2047 34.012 34.3567 33.616 34.3567 33.072C34.3567 32.56 34.2007 32.192 33.8887 31.968C33.5847 31.736 33.0927 31.62 32.4127 31.62H31.3927V34.62H32.5447ZM43.0023 39L42.3783 36.924H39.2463L38.6223 39H37.4703L40.1223 30.732H41.5623L44.2023 39H43.0023ZM39.5223 36H42.1023L40.8183 31.68L39.5223 36ZM50.8435 30.732L50.7235 31.704H48.4315V39H47.2915V31.704H44.9395V30.732H50.8435ZM57.0451 39L56.4211 36.924H53.2891L52.6651 39H51.5131L54.1651 30.732H55.6051L58.2451 39H57.0451ZM53.5651 36H56.1451L54.8611 31.68L53.5651 36ZM67.992 39H66.888L66.6 35.268C66.48 33.804 66.412 32.68 66.396 31.896L64.608 38.064H63.54L61.656 31.884C61.656 32.884 61.604 34.04 61.5 35.352L61.224 39H60.144L60.828 30.732H62.364L64.104 36.744L65.76 30.732H67.308L67.992 39ZM75.4238 39L74.7998 36.924H71.6678L71.0438 39H69.8918L72.5438 30.732H73.9838L76.6238 39H75.4238ZM71.9438 36H74.5238L73.2398 31.68L71.9438 36Z" fill="#A4A4A4"/>
<path d="M0.5 6V36.5" stroke="#CECECE"/>
</svg>
